<?xml version="1.0" standalone="no"?>
<!DOCTYPE svg PUBLIC "-//W3C//DTD SVG 20010904//EN"
 "http://www.w3.org/TR/2001/REC-SVG-20010904/DTD/svg10.dtd">
<svg version="1.0" xmlns="http://www.w3.org/2000/svg"
 width="512.000000pt" height="512.000000pt" viewBox="0 0 512.000000 512.000000"
 preserveAspectRatio="xMidYMid meet">
<g transform="translate(0.000000,512.000000) scale(0.100000,-0.100000)"
fill="#000000" stroke="none">
<path d="M3805 4941 c-3 -5 -2 -12 3 -15 5 -3 9 1 9 9 0 17 -3 19 -12 6z"/>
<path d="M1123 4906 l-28 -24 0 -2261 0 -2261 -283 0 c-311 0 -335 -4 -349
-58 -10 -38 -4 -63 20 -90 l20 -22 651 0 c496 1 655 4 667 13 46 35 47 101 2
137 -24 19 -40 20 -284 20 l-259 0 0 1701 0 1701 498 494 497 493 670 1 670 0
0 -439 0 -438 -55 -11 c-74 -16 -203 -80 -267 -134 -400 -334 -261 -975 242
-1120 l80 -23 -2 -130 c-1 -98 -5 -130 -15 -133 -7 -3 -191 -65 -408 -139
-299 -102 -400 -141 -417 -160 -44 -47 -18 -134 45 -147 20 -5 130 29 404 124
208 71 381 130 385 130 5 0 7 -200 5 -445 l-2 -446 -275 -321 c-250 -293 -275
-325 -275 -358 0 -62 60 -104 119 -84 16 6 122 121 274 299 137 160 250 290
252 290 2 0 116 -131 253 -291 137 -160 257 -294 267 -297 61 -24 125 18 125
83 0 28 -9 47 -37 81 -21 24 -145 169 -275 322 l-238 277 -2 445 c-2 248 1
445 6 445 4 0 178 -58 385 -130 271 -93 384 -127 404 -123 61 12 91 108 46
149 -11 10 -204 82 -427 160 l-407 140 -3 130 -3 131 68 18 c119 32 199 80
293 174 133 133 190 269 190 452 0 296 -196 551 -482 626 l-67 17 -3 504 -3
504 -28 24 -28 24 -1294 0 -1294 0 -28 -24z m70 -4 c-6 -4 561 -6 1261 -4
1024 2 1275 0 1289 -11 17 -12 18 -46 17 -510 0 -486 0 -498 20 -519 11 -12
20 -18 20 -12 0 5 4 5 8 -1 6 -9 117 -44 150 -47 6 -1 12 -6 12 -11 0 -5 7 -6
16 -3 8 3 12 2 9 -4 -6 -9 8 -14 28 -11 4 0 7 -3 7 -8 0 -4 18 -20 41 -35 40
-27 129 -112 129 -123 0 -4 6 -14 14 -22 87 -98 132 -338 92 -492 -8 -29 -12
-58 -9 -63 4 -5 0 -6 -7 -1 -10 6 -12 4 -7 -9 4 -10 3 -15 -3 -11 -6 3 -10 -2
-10 -12 0 -11 -5 -24 -12 -31 -7 -7 -9 -12 -4 -12 4 0 -2 -13 -13 -29 -12 -16
-21 -33 -21 -39 0 -13 -97 -112 -110 -112 -6 0 -9 -4 -6 -9 3 -4 -6 -13 -19
-19 -14 -7 -25 -16 -25 -22 0 -6 -4 -9 -9 -6 -5 3 -12 -1 -15 -10 -3 -9 -13
-14 -20 -11 -8 3 -17 -1 -20 -9 -3 -9 -10 -13 -16 -9 -5 3 -20 -1 -32 -8 -25
-16 -77 -34 -123 -41 -49 -9 -55 -27 -55 -171 0 -118 2 -132 20 -148 11 -9 29
-17 41 -17 13 0 18 -4 13 -12 -5 -7 -2 -9 8 -5 9 3 28 -1 44 -9 16 -9 29 -15
29 -14 0 1 12 -3 26 -9 15 -5 43 -13 63 -16 20 -4 36 -12 36 -17 0 -6 9 -8 20
-5 11 3 18 1 14 -4 -3 -5 4 -9 14 -9 11 0 40 -9 64 -20 25 -11 55 -21 66 -23
12 -2 24 -6 28 -9 3 -4 12 -4 20 -1 8 3 14 0 14 -6 0 -6 8 -11 18 -11 9 0 30
-7 46 -15 15 -8 32 -12 37 -9 5 3 9 0 9 -5 0 -6 3 -10 8 -9 4 1 20 -4 35 -10
15 -7 31 -11 35 -10 4 1 16 -2 27 -6 64 -24 75 -28 82 -28 4 0 12 -6 16 -14 5
-8 12 -12 16 -10 14 9 11 -57 -4 -80 -11 -16 -22 -22 -42 -19 -45 6 -227 67
-235 79 -4 6 -8 8 -8 5 0 -3 -64 17 -142 43 -79 27 -185 62 -237 79 -52 16
-100 34 -107 40 -18 15 -60 4 -69 -18 -13 -32 -18 -869 -5 -893 6 -12 32 -45
58 -74 50 -56 102 -120 114 -139 4 -7 8 -8 8 -3 0 5 14 -10 31 -33 17 -24 41
-55 55 -70 13 -15 31 -36 40 -47 9 -10 12 -13 8 -5 -5 9 -3 12 5 7 6 -4 9 -11
6 -15 -2 -5 16 -30 41 -56 25 -26 40 -44 32 -40 -12 8 14 -21 100 -111 17 -18
32 -38 32 -44 0 -6 4 -9 8 -6 10 6 14 -66 4 -79 -4 -5 -16 -15 -28 -22 -18 -9
-28 -7 -60 12 -21 14 -36 25 -32 25 4 0 -5 13 -20 30 -15 16 -36 40 -47 54
-11 13 -49 57 -85 96 -36 40 -72 83 -80 95 -8 12 -22 29 -30 37 -28 28 -75 83
-71 83 3 0 -16 23 -42 50 -25 28 -57 63 -71 79 -35 39 -60 30 -116 -41 -25
-31 -61 -72 -80 -92 -19 -19 -28 -31 -20 -26 8 5 -1 -7 -20 -27 -19 -20 -48
-54 -65 -76 -26 -34 -33 -38 -50 -29 -17 9 -18 8 -7 -5 12 -15 2 -30 -83 -124
-36 -40 -54 -64 -48 -64 3 0 -5 -9 -18 -21 -13 -12 -23 -26 -21 -33 2 -6 0 -8
-4 -3 -4 4 -15 0 -25 -9 -27 -25 -87 -11 -95 21 -10 40 2 67 53 119 26 27 41
46 33 41 -8 -4 2 9 23 29 20 20 37 39 37 42 0 5 42 53 112 126 14 15 25 28 22
28 -2 0 10 15 27 32 17 18 43 49 57 68 15 19 38 47 52 61 52 55 80 87 80 94 0
4 15 21 33 37 17 17 26 27 18 22 -9 -4 -12 -3 -7 4 4 7 8 209 9 449 2 419 1
439 -17 456 -21 19 -56 23 -56 6 0 -6 -7 -9 -15 -5 -8 3 -15 1 -15 -4 0 -6 -8
-10 -18 -10 -21 0 -122 -33 -167 -54 -16 -8 -70 -27 -120 -42 -49 -15 -94 -30
-100 -34 -11 -9 -76 -25 -87 -22 -5 1 -8 -3 -8 -8 0 -6 -11 -10 -24 -10 -14 0
-27 -4 -30 -9 -3 -4 -18 -11 -33 -14 -16 -3 -41 -11 -58 -18 -48 -20 -82 -19
-102 3 -23 25 -23 46 0 81 13 19 27 27 47 27 16 0 32 4 35 10 3 5 25 14 48 20
23 6 49 14 57 17 8 4 18 7 23 8 4 2 9 4 12 5 3 1 8 3 13 4 4 1 12 4 17 7 11 7
57 19 65 17 3 -1 16 5 30 12 14 8 30 15 35 16 20 3 107 35 133 48 15 7 33 11
41 8 8 -3 11 0 7 7 -4 6 -2 9 6 6 7 -3 49 9 93 26 44 17 92 33 108 36 15 3 27
10 27 15 0 5 3 7 8 4 10 -6 36 16 41 34 2 8 3 68 3 132 -1 106 -10 157 -30
159 -4 0 -16 2 -27 3 -30 3 -166 57 -195 76 -14 9 -33 20 -44 23 -10 4 -16 13
-13 22 4 8 1 12 -6 9 -7 -2 -28 11 -47 29 -47 45 -88 92 -71 82 9 -5 12 -4 7
3 -4 7 -14 12 -23 12 -9 0 -13 3 -10 6 4 4 -2 19 -12 33 -10 14 -31 60 -47
101 -26 68 -29 86 -29 200 0 135 6 191 18 183 4 -2 7 9 7 26 0 16 5 33 10 36
6 4 8 10 5 15 -3 4 2 13 10 20 8 7 15 17 15 22 0 17 71 110 117 154 24 23 43
40 43 37 0 -2 15 7 33 20 46 35 127 80 127 72 0 -4 6 -3 13 3 6 5 33 13 59 17
28 4 58 17 72 30 l25 23 1 258 c1 369 -9 612 -27 630 -13 12 -116 14 -679 14
-366 0 -670 3 -677 6 -7 4 -9 4 -5 0 3 -4 -104 -116 -239 -249 -483 -477 -577
-572 -575 -579 1 -5 -2 -7 -7 -5 -5 1 -49 -38 -98 -88 l-90 -90 -7 -180 c-3
-99 -6 -867 -6 -1706 l0 -1526 25 -21 c24 -21 33 -22 278 -22 138 0 258 -4
265 -9 8 -5 12 -22 10 -46 -2 -29 -8 -39 -23 -41 -39 -6 -1260 -4 -1283 2 -17
5 -22 14 -22 39 0 18 6 38 14 44 11 9 92 12 294 12 223 0 283 3 299 14 18 13
20 29 26 187 4 96 7 1118 7 2273 0 1154 3 2095 6 2092 4 -3 13 0 21 8 8 8 22
15 31 15 11 0 13 -3 5 -8z"/>
<path d="M1267 4766 c-19 -20 -31 -329 -21 -579 10 -257 7 -255 156 -107 62
62 112 117 110 122 -1 5 1 7 6 4 11 -7 532 519 532 537 0 34 -23 36 -397 37
-311 0 -373 -2 -386 -14z m394 -387 c-211 -209 -384 -378 -385 -377 0 2 0 171
2 375 l2 373 378 3 c207 1 379 3 382 4 3 1 -168 -169 -379 -378z"/>
<path d="M3591 3709 c-41 -10 -79 -23 -84 -28 -6 -6 -18 -11 -27 -11 -9 0 -27
-11 -40 -25 -13 -14 -27 -25 -32 -25 -5 0 -24 -17 -43 -37 -19 -21 -45 -49
-58 -63 -27 -29 -73 -132 -83 -186 -8 -46 -9 -169 -1 -204 10 -43 46 -133 56
-139 17 -11 30 -58 20 -70 -6 -8 -5 -8 3 -1 13 11 35 14 25 3 -6 -5 9 -21 84
-89 9 -8 21 -14 27 -14 7 0 12 -5 12 -11 0 -5 5 -7 10 -4 6 3 10 2 10 -3 0 -9
54 -35 97 -47 75 -21 160 -27 185 -14 15 8 19 8 13 -1 -4 -7 4 -6 27 3 18 8
39 12 46 10 6 -3 12 1 12 7 0 7 7 10 15 6 8 -3 15 -1 15 4 0 6 3 9 8 8 13 -3
79 29 106 53 158 139 221 288 196 466 -10 74 -39 153 -68 186 -8 9 -12 17 -9
17 13 0 -73 94 -114 125 -36 28 -128 74 -166 84 -74 20 -163 20 -242 0z m272
-42 c173 -63 291 -222 304 -407 18 -266 -193 -490 -462 -490 -134 0 -244 48
-337 148 -59 65 -90 122 -113 209 -60 230 82 473 320 549 22 7 81 13 132 13
73 1 106 -4 156 -22z"/>
<path d="M3416 3538 c3 -5 10 -6 15 -3 13 9 11 12 -6 12 -8 0 -12 -4 -9 -9z"/>
<path d="M3295 3801 c-3 -5 -2 -12 3 -15 5 -3 9 1 9 9 0 17 -3 19 -12 6z"/>
<path d="M4129 923 c-13 -16 -12 -17 4 -4 16 13 21 21 13 21 -2 0 -10 -8 -17
-17z"/>
</g>
</svg>
